<svg width="4663" height="987" viewBox="0 0 4663 987" fill="none" xmlns="http://www.w3.org/2000/svg">
<g filter="url(#filter0_i_6883_542)">
<path d="M2170.27 345.837C2178 345.791 2183.59 345.765 2189.18 345.773C2228.73 345.829 2244.22 356.869 2254.71 394.064C2278.92 479.889 2302.78 565.813 2326.72 651.716C2336.44 686.586 2345.99 721.502 2357.12 761.853C2360.87 751.388 2363.33 745.735 2364.93 739.847C2396.55 623.502 2427.42 506.95 2459.96 390.863C2471.13 351.003 2480.63 345.93 2521.04 345.732C2528.22 345.697 2535.41 345.632 2542.59 345.763C2579.11 346.428 2597.94 370.867 2586.84 406.337C2560.7 489.808 2533.38 572.907 2506.38 656.108C2485 722.013 2463.7 787.946 2441.79 853.678C2424.89 904.413 2355.1 929.14 2309.92 898.751C2298.01 890.738 2288.75 874.52 2284.42 860.209C2256.1 766.615 2229.37 672.539 2202.38 578.547C2196.28 557.293 2191.2 535.746 2184.19 508.74C2173.38 547.171 2163.95 580.882 2154.41 614.558C2131.83 694.212 2109.48 773.935 2086.46 853.461C2074.09 896.206 2058.45 907.907 2015.39 909.405C1964.81 911.164 1945.13 900.363 1931.02 857.248C1882.45 708.863 1834.5 560.273 1787.33 411.442C1773.89 369.059 1792.54 346.389 1837.71 345.798C1845.69 345.693 1853.67 345.656 1861.65 345.797C1893.38 346.355 1906.86 355.366 1914.85 385.731C1945.57 502.471 1975.53 619.412 2005.79 736.274C2007.57 743.142 2009.49 749.972 2015.49 757.596C2021.84 734.006 2027.92 710.343 2034.57 686.841C2063.12 585.934 2091.95 485.106 2120.41 384.175C2127.31 359.718 2142.3 346.293 2170.27 345.837Z" fill="url(#paint0_linear_6883_542)"/>
</g>
<g filter="url(#filter1_i_6883_542)">
<path d="M3619.06 375.535C3675.03 416.979 3699.49 473.88 3701.12 539.002C3703.78 645.114 3702.2 751.337 3701.98 857.512C3701.92 888.447 3687.18 903.823 3656.36 907.189C3647.65 908.139 3638.82 909.407 3630.14 908.929C3587.41 906.577 3572.59 890.607 3572.56 847.538C3572.51 759.721 3572.9 671.902 3572.23 584.091C3572.09 565.98 3569.97 547.423 3565.52 529.895C3552.88 480.058 3510.85 450.371 3457.56 451.623C3402.61 452.913 3358.65 487.33 3347.84 539.515C3343.84 558.809 3342.3 578.904 3342.16 598.652C3341.57 680.074 3342.04 761.503 3341.92 842.929C3341.89 866.323 3341.96 891.809 3316.47 902.413C3286.89 914.717 3253.42 916.648 3228.01 896.564C3215.42 886.613 3209.44 861.77 3209.31 843.598C3207.99 667.975 3208.55 492.339 3208.56 316.707C3208.56 266.413 3208.4 216.118 3208.5 165.824C3208.58 121.509 3222.88 106.865 3266.49 105.983C3271.27 105.887 3276.06 105.657 3280.85 105.663C3324.65 105.719 3341.59 121.785 3341.92 166.048C3342.46 239.489 3342.06 312.936 3342.06 386.381C3342.06 391.749 3342.06 397.117 3342.06 404.723C3427.96 326.461 3519.8 320.628 3619.06 375.535Z" fill="white"/>
</g>
<g filter="url(#filter2_i_6883_542)">
<path d="M1431.39 916.397C1364.5 913.377 1309.91 889.128 1280.2 830.13C1251.25 772.639 1255.4 713.121 1292.01 658.476C1319.93 616.808 1362.44 597.187 1410.01 590.844C1447.68 585.822 1486.14 586.533 1524.28 585.395C1548.12 584.683 1572 585.263 1595.67 585.263C1607.28 532.028 1587.9 479.773 1549.94 460.635C1503.69 437.316 1446.31 444.614 1415.82 478.794C1408.14 487.399 1401.88 498.107 1397.78 508.915C1385.09 542.335 1354.74 557.359 1319.13 546.411C1293.68 538.583 1281.5 510.197 1288.99 477.354C1300.88 425.231 1334.4 388.619 1380.33 367.577C1467.01 327.868 1556.29 325.79 1640.66 374.034C1706.94 411.94 1729.87 477.726 1731.65 549.757C1734.22 654.221 1732.95 758.788 1732.62 863.309C1732.54 887.489 1720.47 902.863 1694.95 907.448C1635.67 918.098 1609.24 897.028 1601.77 847.687C1557.39 901.764 1499.52 919.367 1431.39 916.397ZM1398.98 710.163C1374.17 752.225 1388.98 796.669 1432.28 810.105C1523.65 838.454 1602.34 778.351 1598.8 681.385C1552.04 681.385 1505 678.879 1458.47 682.578C1438.96 684.129 1420.5 698.832 1398.98 710.163Z" fill="url(#paint1_linear_6883_542)"/>
</g>
<g filter="url(#filter3_i_6883_542)">
<path d="M4223.55 906.974C4169.22 919.396 4139.47 900.686 4131.59 847.947C4099.85 882.876 4062.86 906.486 4017.43 913.592C3938.5 925.938 3855.28 907.357 3815.03 836.788C3769.17 756.39 3792.8 626.381 3917.32 595.916C3952.32 587.352 3989.66 587.364 4026.03 585.592C4059.35 583.969 4092.81 585.248 4131.21 585.248C4127.54 558.746 4127.8 532.854 4119.94 509.717C4104.02 462.832 4072.93 449.919 4026.3 447.416C3981.09 444.989 3946.29 469.347 3931.62 509.061C3918.01 545.9 3876.93 560.864 3841.67 542.435C3825.34 533.902 3819.52 520.339 3820.08 503.171C3821.91 446.633 3849.8 403.613 3896.87 376.66C3984.27 326.622 4076.06 324.785 4164.61 372.251C4230.21 407.42 4254.89 471.705 4256.83 542.224C4259.77 649.103 4257.83 756.12 4257.53 863.078C4257.47 884.713 4249.31 901.786 4223.55 906.974ZM4090.31 784.856C4123.45 757.944 4134.58 723.345 4127.37 681.235C4081.71 681.235 4037.16 680.502 3992.66 681.692C3979.69 682.039 3966.19 686.282 3954.13 691.516C3926.69 703.433 3914.98 725.836 3917.59 756.983C3919.82 783.694 3935.79 803.207 3963.95 810.402C4008.54 821.798 4050.21 815.139 4090.31 784.856Z" fill="white"/>
</g>
<g filter="url(#filter4_i_6883_542)">
<path d="M2658.88 462.561C2723.86 359.991 2831.57 327.891 2946.27 344.727C3028.79 356.84 3090.27 399.711 3130.68 472.082C3155.64 516.784 3137.6 544.94 3086.37 547.819C3051.96 549.753 3029.16 541.765 3007.82 509.575C2947.81 419.087 2807.03 433.69 2764.15 533.332C2732.24 607.483 2732.03 681.807 2780.55 750.288C2833.01 824.317 2971.66 824.581 3018.11 737.99C3034.6 707.245 3099.16 695.574 3126.73 717.874C3144.33 732.113 3145.93 752.152 3137.21 772.034C3110.64 832.646 3065.08 874.943 3003.54 896.537C2894.58 934.767 2791.06 924.974 2700.26 848.173C2645.09 801.515 2621.65 737.324 2615.08 667.748C2608.31 596.1 2619.22 526.768 2658.88 462.561Z" fill="white"/>
</g>
<g filter="url(#filter5_i_6883_542)">
<path d="M4503.23 209.095C4511.84 225.339 4523.43 239.997 4525.02 255.67C4528.22 287.206 4525.97 319.297 4525.97 354.21C4553.14 354.21 4579.18 353.748 4605.21 354.319C4643.65 355.163 4660.58 371.9 4659.97 407.311C4659.35 443.962 4642.84 460.172 4604.94 460.678C4579.52 461.017 4554.09 460.742 4526 460.742C4526 487.571 4526 513.61 4526 539.65C4526 602.694 4525.76 665.74 4526.08 728.783C4526.35 780.932 4552.07 804.415 4601.97 798.935C4633.03 795.523 4651.45 805.258 4659.03 829.098C4668.26 858.142 4658.16 889.339 4633.21 901.413C4560.49 936.604 4438.29 911.933 4407.2 808.661C4400.22 785.498 4397.47 760.327 4397.16 736.025C4396.02 645.176 4396.71 554.304 4396.71 460.672C4380.13 460.672 4364.45 461.19 4348.81 460.564C4315.79 459.243 4300.72 441.807 4300.69 405.837C4300.67 369.728 4313.06 355.818 4347.73 354.241C4363.54 353.522 4379.41 354.119 4396.76 354.119C4396.76 321.61 4396.52 289.851 4396.83 258.097C4397.19 221.3 4415.9 201.958 4452.6 202.198C4468.97 202.305 4485.32 205.936 4503.23 209.095Z" fill="white"/>
</g>
<g filter="url(#filter6_i_6883_542)">
<path d="M1143.26 537.487C1143.3 606.898 1143.06 673.916 1143.48 740.928C1143.72 779.323 1159.71 796.297 1197.17 799.846C1230.08 802.966 1240.23 811.526 1243.87 839.266C1248.22 872.438 1236.84 894.628 1208.88 903.874C1142.04 925.971 1052.16 899.376 1024.15 814.333C1017.82 795.112 1014.52 774.003 1014.45 753.747C1013.75 555.096 1014 356.442 1014.05 157.789C1014.05 123.051 1030.08 107.166 1064.61 105.859C1116.94 103.879 1145.37 105.034 1143.87 183.274C1141.63 300.507 1143.27 417.815 1143.26 537.487Z" fill="url(#paint2_linear_6883_542)"/>
</g>
<g filter="url(#filter7_i_6883_542)">
<path d="M338.963 940.378C301.953 922.212 269.265 929.838 234.263 945.787C198.165 962.235 159.081 972.377 120.886 983.892C94.0581 991.979 72.855 983.991 58.5128 963.361C46.4731 946.043 47.5388 921.319 61.9047 900.293C67.5667 892.007 73.8226 883.95 80.8275 876.786C118.99 837.753 156.761 798.291 196.163 760.539C213.938 743.508 226.01 725.68 230.439 700.846C236.161 668.766 245.698 637.367 250.868 603.98C195.736 658.346 140.604 712.711 82.3328 770.172C71.0197 752.255 59.8355 737.357 51.5676 720.985C2.87589 624.569 -9.76305 522.855 7.05499 416.562C21.3971 325.918 58.4044 246.318 122.175 180.498C198.165 102.066 290.433 55.329 399.739 41.7796C587.007 18.5664 772.415 114.09 857.242 280.692C897.75 360.25 914.789 444.941 906.162 534.414C888.157 721.147 789.326 850.064 620.149 923.99C530.617 963.113 435.443 964.746 338.963 940.378Z" fill="url(#paint3_linear_6883_542)"/>
</g>
<g filter="url(#filter8_di_6883_542)">
<path d="M550.97 684.821C582.044 709.813 592.821 756.728 577.2 794.627C548.655 863.881 466.643 865.645 425.885 825.017C381.049 780.324 390.97 706.874 449.783 677.824C454.359 675.564 455.218 673.45 454.693 668.893C452.562 650.379 450.461 631.849 449.062 613.271C448.552 606.497 446.082 603.971 439.449 602.929C409.724 598.262 385.155 584.363 367.097 560.024C349.224 535.935 342.994 508.543 346.098 479.019C346.711 473.19 345.267 470.604 339.9 468.596C321.275 461.625 302.757 454.355 284.346 446.838C280.387 445.221 277.916 445.781 275.452 448.902C239.474 494.476 167.243 490.117 133.059 443.753C100.703 399.868 112.606 336.67 158.691 307.787C194.676 285.234 247.149 292.414 276.773 323.155C293.738 340.759 303.084 361.332 305.534 385.42C305.715 387.197 307.275 389.717 308.82 390.341C328.839 398.425 348.971 406.228 367.063 413.314C379.586 402.039 390.428 390.77 402.773 381.504C423.03 366.3 446.672 361.08 471.745 362.726C495.446 364.282 516.82 372.077 535.261 387.467C536.678 388.649 540.518 388.868 541.945 387.806C560.156 374.261 578.131 360.401 595.19 347.367C593.886 334.706 591.128 322.887 591.722 311.238C595.14 244.189 660.991 206.37 720.621 230.513C770.928 250.881 795.95 312.362 769.719 363.913C745.01 412.474 683.743 428.437 638.211 398.5C634.042 395.759 631.908 396.486 628.628 399.027C612.846 411.253 597.019 423.425 581.016 435.36C577.115 438.269 576.695 440.473 578.669 445.138C601.16 498.283 581.119 571.398 513.98 595.528C510.386 596.819 509.345 597.939 509.805 601.693C512.287 621.91 514.402 642.173 516.948 662.382C517.186 664.267 519.205 666.47 520.989 667.526C530.745 673.304 540.685 678.77 550.97 684.821ZM419.858 518.248C441.557 549.772 480.518 547.191 501.716 530.469C532.21 506.415 530.446 459.898 497.061 436.195C479.838 423.967 444.97 423.421 424.758 445.178C405.286 466.138 402.491 494.749 419.858 518.248Z" fill="white"/>
</g>
<defs>
<filter id="filter0_i_6883_542" x="1783.05" y="345.685" width="806.956" height="566.321" filterUnits="userSpaceOnUse" color-interpolation-filters="sRGB">
<feFlood flood-opacity="0" result="BackgroundImageFix"/>
<feBlend mode="normal" in="SourceGraphic" in2="BackgroundImageFix" result="shape"/>
<feColorMatrix in="SourceAlpha" type="matrix" values="0 0 0 0 0 0 0 0 0 0 0 0 0 0 0 0 0 0 127 0" result="hardAlpha"/>
<feOffset/>
<feGaussianBlur stdDeviation="19.4046"/>
<feComposite in2="hardAlpha" operator="arithmetic" k2="-1" k3="1"/>
<feColorMatrix type="matrix" values="0 0 0 0 0 0 0 0 0 0 0 0 0 0 0 0 0 0 0.5 0"/>
<feBlend mode="normal" in2="shape" result="effect1_innerShadow_6883_542"/>
</filter>
<filter id="filter1_i_6883_542" x="3208.43" y="105.663" width="494.215" height="806.016" filterUnits="userSpaceOnUse" color-interpolation-filters="sRGB">
<feFlood flood-opacity="0" result="BackgroundImageFix"/>
<feBlend mode="normal" in="SourceGraphic" in2="BackgroundImageFix" result="shape"/>
<feColorMatrix in="SourceAlpha" type="matrix" values="0 0 0 0 0 0 0 0 0 0 0 0 0 0 0 0 0 0 127 0" result="hardAlpha"/>
<feOffset/>
<feGaussianBlur stdDeviation="19.4046"/>
<feComposite in2="hardAlpha" operator="arithmetic" k2="-1" k3="1"/>
<feColorMatrix type="matrix" values="0 0 0 0 0 0 0 0 0 0 0 0 0 0 0 0 0 0 0.5 0"/>
<feBlend mode="normal" in2="shape" result="effect1_innerShadow_6883_542"/>
</filter>
<filter id="filter2_i_6883_542" x="1261.16" y="337.803" width="472.069" height="578.91" filterUnits="userSpaceOnUse" color-interpolation-filters="sRGB">
<feFlood flood-opacity="0" result="BackgroundImageFix"/>
<feBlend mode="normal" in="SourceGraphic" in2="BackgroundImageFix" result="shape"/>
<feColorMatrix in="SourceAlpha" type="matrix" values="0 0 0 0 0 0 0 0 0 0 0 0 0 0 0 0 0 0 127 0" result="hardAlpha"/>
<feOffset/>
<feGaussianBlur stdDeviation="19.4046"/>
<feComposite in2="hardAlpha" operator="arithmetic" k2="-1" k3="1"/>
<feColorMatrix type="matrix" values="0 0 0 0 0 0 0 0 0 0 0 0 0 0 0 0 0 0 0.5 0"/>
<feBlend mode="normal" in2="shape" result="effect1_innerShadow_6883_542"/>
</filter>
<filter id="filter3_i_6883_542" x="3793.35" y="337.854" width="465.086" height="579.282" filterUnits="userSpaceOnUse" color-interpolation-filters="sRGB">
<feFlood flood-opacity="0" result="BackgroundImageFix"/>
<feBlend mode="normal" in="SourceGraphic" in2="BackgroundImageFix" result="shape"/>
<feColorMatrix in="SourceAlpha" type="matrix" values="0 0 0 0 0 0 0 0 0 0 0 0 0 0 0 0 0 0 127 0" result="hardAlpha"/>
<feOffset/>
<feGaussianBlur stdDeviation="19.4046"/>
<feComposite in2="hardAlpha" operator="arithmetic" k2="-1" k3="1"/>
<feColorMatrix type="matrix" values="0 0 0 0 0 0 0 0 0 0 0 0 0 0 0 0 0 0 0.5 0"/>
<feBlend mode="normal" in2="shape" result="effect1_innerShadow_6883_542"/>
</filter>
<filter id="filter4_i_6883_542" x="2613.21" y="340.486" width="529.164" height="577.801" filterUnits="userSpaceOnUse" color-interpolation-filters="sRGB">
<feFlood flood-opacity="0" result="BackgroundImageFix"/>
<feBlend mode="normal" in="SourceGraphic" in2="BackgroundImageFix" result="shape"/>
<feColorMatrix in="SourceAlpha" type="matrix" values="0 0 0 0 0 0 0 0 0 0 0 0 0 0 0 0 0 0 127 0" result="hardAlpha"/>
<feOffset/>
<feGaussianBlur stdDeviation="19.4046"/>
<feComposite in2="hardAlpha" operator="arithmetic" k2="-1" k3="1"/>
<feColorMatrix type="matrix" values="0 0 0 0 0 0 0 0 0 0 0 0 0 0 0 0 0 0 0.5 0"/>
<feBlend mode="normal" in2="shape" result="effect1_innerShadow_6883_542"/>
</filter>
<filter id="filter5_i_6883_542" x="4300.69" y="202.196" width="361.706" height="714.287" filterUnits="userSpaceOnUse" color-interpolation-filters="sRGB">
<feFlood flood-opacity="0" result="BackgroundImageFix"/>
<feBlend mode="normal" in="SourceGraphic" in2="BackgroundImageFix" result="shape"/>
<feColorMatrix in="SourceAlpha" type="matrix" values="0 0 0 0 0 0 0 0 0 0 0 0 0 0 0 0 0 0 127 0" result="hardAlpha"/>
<feOffset/>
<feGaussianBlur stdDeviation="19.4046"/>
<feComposite in2="hardAlpha" operator="arithmetic" k2="-1" k3="1"/>
<feColorMatrix type="matrix" values="0 0 0 0 0 0 0 0 0 0 0 0 0 0 0 0 0 0 0.5 0"/>
<feBlend mode="normal" in2="shape" result="effect1_innerShadow_6883_542"/>
</filter>
<filter id="filter6_i_6883_542" x="1013.96" y="105.408" width="230.802" height="805.877" filterUnits="userSpaceOnUse" color-interpolation-filters="sRGB">
<feFlood flood-opacity="0" result="BackgroundImageFix"/>
<feBlend mode="normal" in="SourceGraphic" in2="BackgroundImageFix" result="shape"/>
<feColorMatrix in="SourceAlpha" type="matrix" values="0 0 0 0 0 0 0 0 0 0 0 0 0 0 0 0 0 0 127 0" result="hardAlpha"/>
<feOffset/>
<feGaussianBlur stdDeviation="19.4046"/>
<feComposite in2="hardAlpha" operator="arithmetic" k2="-1" k3="1"/>
<feColorMatrix type="matrix" values="0 0 0 0 0 0 0 0 0 0 0 0 0 0 0 0 0 0 0.5 0"/>
<feBlend mode="normal" in2="shape" result="effect1_innerShadow_6883_542"/>
</filter>
<filter id="filter7_i_6883_542" x="0" y="38.3301" width="908.347" height="948.67" filterUnits="userSpaceOnUse" color-interpolation-filters="sRGB">
<feFlood flood-opacity="0" result="BackgroundImageFix"/>
<feBlend mode="normal" in="SourceGraphic" in2="BackgroundImageFix" result="shape"/>
<feColorMatrix in="SourceAlpha" type="matrix" values="0 0 0 0 0 0 0 0 0 0 0 0 0 0 0 0 0 0 127 0" result="hardAlpha"/>
<feOffset/>
<feGaussianBlur stdDeviation="19.4046"/>
<feComposite in2="hardAlpha" operator="arithmetic" k2="-1" k3="1"/>
<feColorMatrix type="matrix" values="0 0 0 0 0 0 0 0 0 0 0 0 0 0 0 0 0 0 0.5 0"/>
<feBlend mode="normal" in2="shape" result="effect1_innerShadow_6883_542"/>
</filter>
<filter id="filter8_di_6883_542" x="60.6517" y="188.218" width="773.762" height="737.008" filterUnits="userSpaceOnUse" color-interpolation-filters="sRGB">
<feFlood flood-opacity="0" result="BackgroundImageFix"/>
<feColorMatrix in="SourceAlpha" type="matrix" values="0 0 0 0 0 0 0 0 0 0 0 0 0 0 0 0 0 0 127 0" result="hardAlpha"/>
<feOffset dy="19.165"/>
<feGaussianBlur stdDeviation="27.0706"/>
<feComposite in2="hardAlpha" operator="out"/>
<feColorMatrix type="matrix" values="0 0 0 0 0 0 0 0 0 0 0 0 0 0 0 0 0 0 0.25 0"/>
<feBlend mode="normal" in2="BackgroundImageFix" result="effect1_dropShadow_6883_542"/>
<feBlend mode="normal" in="SourceGraphic" in2="effect1_dropShadow_6883_542" result="shape"/>
<feColorMatrix in="SourceAlpha" type="matrix" values="0 0 0 0 0 0 0 0 0 0 0 0 0 0 0 0 0 0 127 0" result="hardAlpha"/>
<feOffset/>
<feGaussianBlur stdDeviation="19.4046"/>
<feComposite in2="hardAlpha" operator="arithmetic" k2="-1" k3="1"/>
<feColorMatrix type="matrix" values="0 0 0 0 0 0 0 0 0 0 0 0 0 0 0 0 0 0 0.2 0"/>
<feBlend mode="normal" in2="shape" result="effect2_innerShadow_6883_542"/>
</filter>
<linearGradient id="paint0_linear_6883_542" x1="2186.53" y1="345.685" x2="2186.34" y2="912.143" gradientUnits="userSpaceOnUse">
<stop stop-color="#A7D7A4"/>
<stop offset="1" stop-color="#00BC33"/>
</linearGradient>
<linearGradient id="paint1_linear_6883_542" x1="1497.19" y1="337.803" x2="1496.85" y2="916.853" gradientUnits="userSpaceOnUse">
<stop stop-color="#A7D7A4"/>
<stop offset="1" stop-color="#00BC33"/>
</linearGradient>
<linearGradient id="paint2_linear_6883_542" x1="1129.37" y1="105.408" x2="1128.01" y2="911.478" gradientUnits="userSpaceOnUse">
<stop stop-color="#A7D7A4"/>
<stop offset="1" stop-color="#00BC33"/>
</linearGradient>
<linearGradient id="paint3_linear_6883_542" x1="454.174" y1="38.3301" x2="453.697" y2="987.23" gradientUnits="userSpaceOnUse">
<stop stop-color="#A7D7A4"/>
<stop offset="1" stop-color="#00BC33"/>
</linearGradient>
</defs>
</svg>
